# xmcd CD database file
#
# Track frame offsets:
#	150
#	3670
#	23850
#	46935
#	68722
#	87985
#	109652
#	127950
#
# Disc length: 1759 seconds
#
# Revision: 1
# Processed by: cddbd v1.5.1PL0 Copyright (c) Steve Scherf et al.
# Submitted via: CDex 1.51
#
DISCID=5e06dd08
DTITLE=川澄綾子＆清水愛 - ＡＡ
DYEAR=2004
DGENRE=Vocal
TTITLE0=prologue
TTITLE1=鼻歌(ハミング)でぃず♪
TTITLE2=おっかけっこループ
TTITLE3=姉妹愛的意識形態〈しまいあいてきイデオロギー〉
TTITLE4=ましゅまろ・PUNCH
TTITLE5=淡色noon(あわいろ・ヌーン)
TTITLE6=夏色のカケラ(duet.ver)
TTITLE7=epilogue
EXTD=YEAR: 2004
EXTT0=
EXTT1=
EXTT2=
EXTT3=
EXTT4=
EXTT5=
EXTT6=
EXTT7=
PLAYORDER=
